<svg id="Layer_1" data-name="Layer 1" xmlns="http://www.w3.org/2000/svg" viewBox="0 0 994.36 485.64"><defs><style>.cls-1{font-size:190px;font-family:Ostrich Sans;}.cls-2,.cls-3{fill:none;}.cls-2{stroke:#fff;stroke-miterlimit:10;}</style></defs><title>MK-Photography-Logo</title><text class="cls-1" transform="translate(214.25 381.36)">Photography</text><line class="cls-2" x1="324.86" y1="357.32" x2="324.86" y2="357.32"/><path class="cls-3" d="M242.57,146.17l2.47-2.11,2.43-2.17,2.4-2.22,2.37-2.25,2.34-2.29,2.31-2.32,2.28-2.35,2.23-2.38c0.73-.8,1.47-1.6,2.18-2.41s1.45-1.63,2.09-2.42l1-1.2,1-1.31a28.51,28.51,0,0,0,3.14-5,20.77,20.77,0,0,0,1.88-5.23,8.19,8.19,0,0,0-.18-4.4,5.09,5.09,0,0,0-1-1.59,2.78,2.78,0,0,0-.34-0.36,2.93,2.93,0,0,0-.38-0.34c-0.14-.1-0.28-0.25-0.4-0.32l-0.36-.25-0.7-.41-0.18-.1h0L269,102.7a3.31,3.31,0,0,0-.43-0.18l-0.44-.13a6.9,6.9,0,0,0-2-.15,13.59,13.59,0,0,0-4.8,1.46,30.82,30.82,0,0,0-5,3.09,52.65,52.65,0,0,0-4.69,4c-0.75.71-1.49,1.45-2.21,2.2s-1.44,1.54-2,2.25l0,0a4.39,4.39,0,0,1-.84.76c-1.94,7.38-3.88,15-5.82,22.85q-1.33,5.37-2.66,10.86c0.66-.49,1.32-1,2-1.5C240.91,147.55,241.73,146.84,242.57,146.17Z" transform="translate(-32.64 -13.18)"/><path d="M518,159.21c-2.1,3.56-4.3,7.06-6.72,10.41-1.17,1.71-2.45,3.32-3.68,5s-2.55,3.25-3.91,4.8c-2.64,3.17-5.46,6.19-8.34,9.15-1.46,1.46-2.91,2.92-4.42,4.33s-3,2.8-4.56,4.18c-3.11,2.71-6.26,5.37-9.54,7.87-1.61,1.28-3.29,2.48-4.94,3.72l-2.52,1.79-1.26.9-1.28.87-2.56,1.74-2.59,1.69q-1.29.85-2.61,1.66l-2.63,1.63c-7.06,4.26-14.3,8.21-21.73,11.77-3.7,1.81-7.47,3.47-11.25,5.12s-7.61,3.16-11.46,4.6-7.73,2.83-11.65,4.12-7.85,2.49-11.8,3.63-7.94,2.16-11.94,3.13-8,1.82-12.06,2.61-8.09,1.47-12.15,2.06-8.14,1.08-12.22,1.47a190.48,190.48,0,0,1-24.52.78c-4.07-.15-8.14-0.47-12.16-1L302,257l-1.5-.24-1.49-.24-1.47-.28c-1-.17-2-0.4-3-0.63l-0.76-.17-0.09,0h-0.05l-0.18,0-0.36-.1-1.44-.38a53,53,0,0,1-11-4.43,54.92,54.92,0,0,1-5.06-3.08,57.41,57.41,0,0,1-4.68-3.64c-1.51-1.27-2.92-2.68-4.3-4.09s-2.67-2.94-3.89-4.52a75.32,75.32,0,0,1-6.62-10,108.8,108.8,0,0,1-9.19-22.3,161.67,161.67,0,0,1-5-23.8q-0.82-6-1.25-12.13-0.21-3-.33-6.08c0-1-.06-2-0.08-3,0-.37,0-0.74,0-1.11,0.46-.29.91-0.59,1.33-0.9,1-.66,1.89-1.36,2.81-2s1.8-1.41,2.7-2.12l2.63-2.17,2.57-2.21L254.8,145l2.49-2.28,2.46-2.32,2.43-2.35,2.39-2.39,2.36-2.43c0.77-.83,1.56-1.64,2.33-2.48s1.53-1.66,2.3-2.57l1.15-1.34,1.05-1.29,0.26-.32,0.13-.16,0.18-.23,0.57-.76c0.37-.5.72-1,1.06-1.53,0.68-1,1.3-2.09,1.88-3.2a28.55,28.55,0,0,0,2.7-7.22,18.64,18.64,0,0,0,.42-4.21,14.42,14.42,0,0,0-.8-4.52,13.23,13.23,0,0,0-2.36-4.13,14.73,14.73,0,0,0-1.62-1.64c-0.3-.24-0.55-0.49-0.89-0.72l-1-.7-0.73-.44-0.18-.11-0.09-.05h0l-0.17-.09-0.07,0-0.54-.26a11,11,0,0,0-1.1-.47l-1.14-.37a15.14,15.14,0,0,0-4.6-.47,21.71,21.71,0,0,0-7.92,2.14,39.15,39.15,0,0,0-6.4,3.81l-0.52.39c2.28-8.29,4.53-16.16,6.74-23.48,2.71-9,5.34-17.18,7.84-24.36s4.86-13.35,7-18.31a122.3,122.3,0,0,1,5.32-11.17l0.9-1.61,0.69-1.12,0.56-.91,0.11-.18,0,0a3.9,3.9,0,0,0-6.72-4l-0.63,1.06-0.77,1.31-1,1.81a129.76,129.76,0,0,0-5.43,12c-2.09,5.2-4.38,11.56-6.78,18.9s-4.89,15.67-7.45,24.79-5.16,19-7.79,29.54l-0.72,2.91c-0.65.67-1.28,1.34-2,2.11l-0.05.06a4.39,4.39,0,0,0,.07,5.75c-1.74,7.22-3.48,14.67-5.22,22.3-5.24,23-10.39,47.66-15.21,72.36-2.62,13.4-5.14,26.82-7.53,40q-0.47-5.82-.87-11.65-1-14.08-1.51-28.19-1.11-28.21-.72-56.45c0.12-9.41.37-18.82,0.7-28.23s0.8-18.81,1.37-28.2S213,78.5,213.84,69.12q0.61-7,1.31-14c0.48-4.66,1-9.37,1.57-14v0a3.89,3.89,0,0,0-7.29-2.31q-8.49,16-16.86,32l-8.33,16q-4.14,8-8.22,16.13L174,107l-2,4.07c-1.33,2.8-2.57,5.56-3.79,8.34-2.44,5.54-4.8,11.09-7.15,16.65l-7,16.69L151,160.25c-0.43-2-.8-4.1-1.13-6.19-0.85-5.47-1.46-11-2-16.62s-0.93-11.19-1.3-16.81-0.67-11.24-.93-16.87c-0.53-11.26-.87-22.54-1.15-33.83q-0.21-8.46-.34-16.93c-0.09-5.64-.15-11.3-0.18-16.92a3,3,0,0,0-5.91-.78l-2,7.39c-0.32,1.24-.72,2.45-1.08,3.68L133.88,50c-0.71,2.45-1.55,4.87-2.35,7.31L130.33,61l-1.28,3.62-1.29,3.62c-0.42,1.21-.86,2.42-1.32,3.61L123.73,79c-1.88,4.77-3.73,9.56-5.73,14.3s-4,9.46-6,14.19-4.17,9.4-6.35,14.06-4.36,9.32-6.57,14-4.49,9.26-6.79,13.87-4.61,9.21-6.94,13.8-4.71,9.16-7.12,13.71c-1.19,2.28-2.41,4.55-3.62,6.83s-2.42,4.55-3.66,6.81q-3.68,6.8-7.39,13.57l-3.75,6.76L56,217.64q-3.8,6.73-7.66,13.43t-7.77,13.37c-2.62,4.44-5.25,8.87-7.93,13.28,2.86-4.29,5.66-8.62,8.44-13s5.53-8.71,8.26-13.09,5.41-8.78,8.09-13.19l4-6.63,4-6.65c2.62-4.45,5.24-8.89,7.8-13.37,1.29-2.23,2.56-4.48,3.84-6.72s2.55-4.49,3.8-6.75c2.53-4.5,5-9,7.49-13.56s4.92-9.08,7.31-13.66,4.76-9.17,7.12-13.77,4.64-9.23,6.87-13.9,4.46-9.33,6.66-14,4.31-9.4,6.36-14.16,4.07-9.52,6.06-14.3l2.85-7.23c0.48-1.2.94-2.42,1.39-3.63l1.36-3.65,1.35-3.65,1.27-3.68c0.33-1,.68-2,1-2.93q0,6.9.09,13.81,0.08,8.5.29,17t0.5,17c0.42,11.34,1,22.68,1.94,34,0.5,5.68,1.08,11.37,1.92,17.08,0.43,2.86.92,5.72,1.59,8.62,0.32,1.45.72,2.91,1.2,4.4l0.38,1.13,0.45,1.15c0.17,0.39.36,0.79,0.55,1.19s0.46,0.83.69,1.24a3.63,3.63,0,0,0,6.5-.41l0.07-.17q6.92-16.65,14-33.26c2.36-5.52,4.74-11,7.18-16.51,1.21-2.73,2.46-5.45,3.72-8.08l2-4,2-4q4.05-8,8.21-16l8.34-16,7.38-14q-0.38,4-.72,8.1-1.2,14.17-2,28.36t-1.25,28.39c-0.31,9.47-.46,18.94-0.52,28.41s0,18.95.21,28.42,0.55,18.94,1,28.4,1,18.92,1.84,28.37,1.68,18.88,2.77,28.29c0.2,1.74.42,3.48,0.63,5.22q-0.91,5.22-1.78,10.35c-3.94,23.26-7.34,45-10,63.68s-4.64,34.28-5.85,45.22c-0.62,5.47-1,9.77-1.34,12.7l-0.43,4.5L190,404.3c0.35-2.93.86-7.22,1.58-12.67,1.43-10.91,3.68-26.46,6.72-45.07s6.85-40.28,11.24-63.43l0.43-2.26q1,7.23,2,14.43c1.45,9.37,3.05,18.71,4.88,28s3.93,18.55,6.2,27.76,4.85,18.34,7.63,27.4,5.93,18,9.31,26.88,7.16,17.57,11.23,26.13c2,4.29,4.2,8.5,6.39,12.7l3.44,6.22c0.56,1,1.18,2.05,1.78,3.08l1.81,3.06a262.3,262.3,0,0,0,15.88,23.53h0v0q4.34,4.82,8.76,9.56c1.48,1.57,3,3.15,4.48,4.69,0.76,0.77,1.52,1.54,2.3,2.29q0.58,0.57,1.18,1.11c0.39,0.37.81,0.71,1.23,1.06-0.4-.36-0.81-0.72-1.18-1.11s-0.76-.76-1.13-1.16c-0.75-.78-1.47-1.58-2.2-2.38-1.45-1.6-2.87-3.22-4.29-4.85q-4.24-4.88-8.38-9.84a275.4,275.4,0,0,1-15-23.89l-1.7-3.09c-0.57-1-1.15-2.05-1.67-3.11l-3.22-6.28c-2-4.24-4.12-8.46-6-12.77-3.82-8.59-7.35-17.32-10.46-26.19-0.82-2.2-1.54-4.44-2.3-6.66s-1.51-4.45-2.2-6.7-1.42-4.48-2.11-6.73l-2-6.76q-3.86-13.56-7-27.32T222,322.35q-2.45-13.89-4.41-27.86t-3.33-28c-0.18-1.79-.35-3.58-0.52-5.37,3.25-16.47,6.74-33.42,10.39-50.33,3.16-14.66,6.43-29.29,9.77-43.57l0,0.27q0.56,6.29,1.52,12.53a167.92,167.92,0,0,0,5.65,24.63,114.6,114.6,0,0,0,10.11,23.32,80.83,80.83,0,0,0,7.28,10.56c1.34,1.68,2.8,3.26,4.29,4.81s3.09,3,4.76,4.37a62.55,62.55,0,0,0,5.18,3.88,60,60,0,0,0,5.59,3.28,57.84,57.84,0,0,0,12.06,4.62l1.57,0.39,0.39,0.1,0.2,0,0.23,0.05,0.76,0.16c1,0.21,2,.42,3.09.6l1.59,0.27,1.57,0.23,1.57,0.22,1.57,0.18c4.19,0.48,8.39.73,12.59,0.81a194.55,194.55,0,0,0,25-1.23c4.15-.47,8.27-1,12.39-1.71s8.2-1.45,12.28-2.3,8.12-1.83,12.15-2.85,8-2.16,12-3.37,7.93-2.49,11.85-3.87,7.82-2.83,11.68-4.36,7.68-3.17,11.48-4.85,7.55-3.47,11.25-5.36c7.43-3.71,14.66-7.83,21.69-12.24l2.62-1.69q1.31-.84,2.6-1.72l2.58-1.74,2.54-1.79,1.27-.9,1.25-.92,2.5-1.85c1.64-1.28,3.3-2.51,4.9-3.83,3.25-2.58,6.38-5.31,9.46-8.09,1.51-1.42,3-2.81,4.51-4.28s2.93-2.93,4.37-4.43c2.84-3,5.62-6.1,8.22-9.33,1.34-1.58,2.56-3.26,3.84-4.89s2.47-3.33,3.61-5.06c2.37-3.4,4.51-6.95,6.55-10.55s3.84-7.33,5.54-11.1C521.94,152,520.07,155.65,518,159.21ZM240.75,138.84c1.94-7.83,3.89-15.47,5.82-22.85a4.39,4.39,0,0,0,.84-0.76l0,0c0.6-.71,1.33-1.51,2-2.25s1.45-1.49,2.21-2.2a52.65,52.65,0,0,1,4.69-4,30.82,30.82,0,0,1,5-3.09,13.59,13.59,0,0,1,4.8-1.46,6.9,6.9,0,0,1,2,.15l0.44,0.13a3.31,3.31,0,0,1,.43.18l0.22,0.09h0l0.18,0.1,0.7,0.41,0.36,0.25c0.12,0.07.27,0.22,0.4,0.32a2.93,2.93,0,0,1,.38.34,2.78,2.78,0,0,1,.34.36,5.09,5.09,0,0,1,1,1.59,8.19,8.19,0,0,1,.18,4.4,20.77,20.77,0,0,1-1.88,5.23,28.51,28.51,0,0,1-3.14,5l-1,1.31-1,1.2c-0.65.79-1.39,1.61-2.09,2.42s-1.45,1.61-2.18,2.41l-2.23,2.38-2.28,2.35-2.31,2.32-2.34,2.29-2.37,2.25-2.4,2.22L245,144.05l-2.47,2.11c-0.83.67-1.66,1.38-2.5,2-0.65.52-1.31,1-2,1.5Q239.42,144.22,240.75,138.84Z" transform="translate(-32.64 -13.18)"/><rect class="cls-3" x="19.36" y="258.82" width="118" height="116"/><path class="cls-3" d="M46,395H176V265H46V395Zm3-127H173V392H49V268Z" transform="translate(-32.64 -13.18)"/><path d="M120.67,255.67c-5.15,0-9.33,3.33-9.33,9.33H130C130,259,125.83,255.67,120.67,255.67Z" transform="translate(-32.64 -13.18)"/><path d="M102,255.67c-5.15,0-9.33,3.33-9.33,9.33h18.67C111.34,259,107.16,255.67,102,255.67Z" transform="translate(-32.64 -13.18)"/><path d="M83.34,255.67C78.19,255.67,74,259,74,265H92.67C92.67,259,88.49,255.67,83.34,255.67Z" transform="translate(-32.64 -13.18)"/><path d="M64.67,255.67c-5.15,0-9.33,3.33-9.33,9.33H74C74,259,69.83,255.67,64.67,255.67Z" transform="translate(-32.64 -13.18)"/><path d="M177.71,385.37a9.28,9.28,0,0,0-1-18.5,9.28,9.28,0,1,0,0-18.55,9.28,9.28,0,1,0,0-18.55,9.28,9.28,0,1,0,0-18.55,9.28,9.28,0,0,0,0-18.55,9.28,9.28,0,0,0,1-18.5,9.33,9.33,0,0,0,8.29-9.27c0-.16,0-0.1,0-0.27a9.08,9.08,0,0,0-9.27-8.62h0s0-.17,0-0.17c-5.15,0-9.33,3.17-9.33,9.17H176V395H46V265h9.34c0-6-4.18-9.39-9.33-9.39l0,0,0,0a9.27,9.27,0,0,0-9.27,8.84c0,0.16,0,.32,0,0.49A9.33,9.33,0,0,0,45,274.16a9.28,9.28,0,0,0,1,18.5,9.28,9.28,0,1,0,0,18.55,9.28,9.28,0,1,0,0,18.55,9.28,9.28,0,0,0,0,18.55,9.28,9.28,0,1,0,0,18.55,9.28,9.28,0,0,0-1,18.5,9.33,9.33,0,0,0-8.29,9.27q0,0.25,0,.49c0.22,4.78,4.06,8.13,8.84,8.34,0.13,0,.27-0.47.4-0.47h0s0,0.49.05,0.49a9.13,9.13,0,0,0,9.33-9.09,9.44,9.44,0,0,0,9.33,9.45A9.28,9.28,0,0,0,74,394.58a9.33,9.33,0,1,0,18.67,0,9.33,9.33,0,1,0,18.67,0,9.33,9.33,0,1,0,18.67,0,9.33,9.33,0,1,0,18.67,0,9.33,9.33,0,1,0,18.67,0,9.33,9.33,0,0,0,9.33,9.33h0.48a9.28,9.28,0,0,0,8.84-8.83q0-.24,0-0.49A9.33,9.33,0,0,0,177.71,385.37Z" transform="translate(-32.64 -13.18)"/><path d="M139.34,255.67c-5.15,0-9.33,3.33-9.33,9.33h18.67C148.67,259,144.49,255.67,139.34,255.67Z" transform="translate(-32.64 -13.18)"/><path d="M158,255.67c-5.15,0-9.33,3.33-9.33,9.33h18.67C167.34,259,163.16,255.67,158,255.67Z" transform="translate(-32.64 -13.18)"/><path d="M173,268H49V392H173V268Zm-3,120H52V272H170V388Z" transform="translate(-32.64 -13.18)"/><path class="cls-3" d="M126.88,306l0.11,0.08-0.17-.12,0,0,0.11,0.08,0.07,0.05Z" transform="translate(-32.64 -13.18)"/><path class="cls-3" d="M55.81,332.61a0.66,0.66,0,1,0,0,.07h0Z" transform="translate(-32.64 -13.18)"/><path class="cls-3" d="M49.9,337.2a0.47,0.47,0,1,0,0-.05l0.05,0.08L50,337.32l0,0Z" transform="translate(-32.64 -13.18)"/><path class="cls-3" d="M65.17,279.17h0l0.06-.05h0Z" transform="translate(-32.64 -13.18)"/><path class="cls-3" d="M56.18,333.34a0.13,0.13,0,0,0,0,0v0Z" transform="translate(-32.64 -13.18)"/><path d="M173.06,337.52c0-3.71-.12-7.42-0.27-11.13-0.07-1.86-.14-3.71-0.24-5.57s-0.21-3.71-.35-5.57A180.38,180.38,0,0,0,169.32,293c-0.37-1.85-.79-3.69-1.28-5.53s-1-3.68-1.73-5.51c-0.34-.91-0.73-1.83-1.17-2.74a16.45,16.45,0,0,0-1.63-2.7,9.18,9.18,0,0,0-1.18-1.29,5.93,5.93,0,0,0-1.69-1.07,4.68,4.68,0,0,0-1.07-.29l-0.28,0H158.7l-1.4,0c-7.43-.19-14.81-0.29-22.21-0.5s-14.78-.46-22.17-0.7l-11.09-.38c-3.7-.1-7.41-0.23-11.12-0.29s-7.43-.1-11.17,0c-1.87,0-3.74.1-5.63,0.21s-3.78.26-5.72,0.54c-1,.14-2,0.31-3,0.57a15.22,15.22,0,0,0-1.61.49,7.64,7.64,0,0,0-1.92,1,4.46,4.46,0,0,0-1.23,1.38c0,0.09-.1.17-0.14,0.27l-0.13.31c0,0.09-.08.25-0.09,0.28l0,0.08-0.1.34-0.39,1.37-0.73,2.7c-1,3.59-1.86,7.19-2.73,10.79-1.74,7.21-3.41,14.44-4.88,21.75-0.73,3.66-1.41,7.33-1.95,11.1-0.26,1.89-.5,3.78-0.6,5.83l0,0.78c0,0.27,0,.54,0,0.82a14.89,14.89,0,0,0,.13,1.88q0.05,0.3.11,0.6c0.06,0.24.13,0.49,0.21,0.74s0.13,0.33.2,0.5l0.11,0.24c0,0.1.13,0.23,0.2,0.34l0.23,0.34h0l0,0.06c0,0.07.08,0.21,0.13,0.35s0.2,0.66.29,1,0.19,0.79.28,1.2c0.17,0.83.33,1.7,0.48,2.58,0.3,1.76.56,3.57,0.83,5.38,0.55,3.63,1.06,7.31,1.68,11s1.31,7.4,2.31,11.16a42.08,42.08,0,0,0,1.92,5.72c0.22,0.49.44,1,.71,1.49a13.39,13.39,0,0,0,.94,1.54,8.68,8.68,0,0,0,1.43,1.61l0.26,0.23c0.1,0.08.15,0.13,0.31,0.26l0.87,0.63a4.59,4.59,0,0,0,.4.25l0.37,0.22c0.25,0.15.5,0.29,0.75,0.4l0.74,0.36,0.73,0.31c1,0.41,1.94.73,2.9,1a54.58,54.58,0,0,0,5.7,1.34c1.89,0.35,3.78.62,5.66,0.84s3.76,0.39,5.65.51a111,111,0,0,0,11.33.16c1,0,1.91-.1,2.92-0.23l0.77-.11c0.25,0,.55-0.1.84-0.16l0.64-.16,0.59-.13c1.72-.33,3.54-0.57,5.34-0.79,3.63-.42,7.29-0.76,10.94-0.92,1.83-.1,3.66-0.15,5.48-0.12,0.91,0,1.82.05,2.72,0.14l0.67,0.08,0.65,0.12a4.46,4.46,0,0,1,1.18.39l0,0a0.35,0.35,0,0,0,.39-0.58,5,5,0,0,0-1.35-.7l-0.69-.22-0.69-.18c-0.92-.22-1.85-0.39-2.78-0.53-1.86-.27-3.72-0.44-5.58-0.57s-3.73-.19-5.59-0.24-3.73-.06-5.6,0-3.74.12-5.68,0.31l-0.77.09-0.72.11c-0.16,0-.32,0-0.53,0l-0.61,0c-0.84,0-1.73,0-2.62,0a106.51,106.51,0,0,1-10.79-1,106.44,106.44,0,0,1-10.59-1.95,48.65,48.65,0,0,1-5-1.48c-0.79-.29-1.57-0.59-2.28-0.93l-0.53-.26-0.49-.27a4.38,4.38,0,0,1-.46-0.28l-0.22-.14A1.35,1.35,0,0,1,66,376l-0.25-.19a1.64,1.64,0,0,1-.22-0.19l-0.25-.24a2.62,2.62,0,0,1-.36-0.49,11.25,11.25,0,0,1-.9-1.88,35.78,35.78,0,0,1-1.4-4.84c-0.77-3.42-1.34-7-1.85-10.6s-1-7.25-1.47-10.93c-0.25-1.84-.52-3.69-0.83-5.57-0.16-.94-0.33-1.89-0.53-2.87-0.1-.49-0.21-1-0.34-1.5s-0.27-1-.47-1.62c-0.1-.29-0.21-0.59-0.36-0.94-0.06-.16-0.17-0.37-0.27-0.56a6.07,6.07,0,0,0-.32-0.55c0-.19,0-0.45,0-0.72v-0.57l0-.6c0.07-1.64.25-3.42,0.45-5.19s0.47-3.57.75-5.37,0.56-3.6.87-5.4c1.23-7.21,2.64-14.43,4.14-21.63,0.75-3.6,1.53-7.2,2.31-10.78l0.6-2.68,0.27-1.2,0.17-.08a9.59,9.59,0,0,1,1-.38c0.75-.24,1.58-0.44,2.43-0.61a105.88,105.88,0,0,1,10.69-1.47c3.64-.35,7.3-0.62,11-0.83s7.35-.38,11-0.47l5.53-.13c1.84,0,3.69,0,5.53,0q11.07,0,22.13.49c7.37,0.35,14.74.88,22.05,1.67l1.36,0.16,0.34,0h0.12l0.06,0a1.24,1.24,0,0,1,.25.11,3.84,3.84,0,0,1,1.19,1.3,18.44,18.44,0,0,1,1.83,4.58,75.73,75.73,0,0,1,1.92,10.54c0.87,7.2,1.35,14.5,1.82,21.81,0.12,1.83.23,3.66,0.33,5.49l0.31,5.5c0.18,3.67.36,7.34,0.5,11s0.29,7.35.4,11,0.22,7.27.31,10.88c0,0.28-.1.59-0.16,0.88s-0.16.8-.25,1.2c-0.17.8-.36,1.59-0.57,2.38a44.24,44.24,0,0,1-1.47,4.63c-0.29.74-.59,1.48-0.94,2.18a17.64,17.64,0,0,1-1.12,2c-0.2.33-.42,0.61-0.64,0.91a9.7,9.7,0,0,1-.7.8,5.31,5.31,0,0,1-1.55,1.16,4.39,4.39,0,0,1-1.63.41l-0.64-.07-0.15,0h0l-0.28-.06a10.77,10.77,0,0,1-1.09-.29,10.6,10.6,0,0,1-3.91-2.31,14,14,0,0,1-2.87-3.83,19,19,0,0,1-1.74-4.63h0a0.35,0.35,0,0,0-.69.09,16.27,16.27,0,0,0,.35,2.61,20.36,20.36,0,0,0,.71,2.55,15.79,15.79,0,0,0,2.66,4.71,12.38,12.38,0,0,0,2,1.94,12.31,12.31,0,0,0,3.78,2l0.34,0.11,0.09,0h0.07l0.11,0,0.16,0,0.63,0.14a7.09,7.09,0,0,0,3.37-.35c0.25-.1.52-0.19,0.75-0.31l0.7-.38a10.85,10.85,0,0,0,1.25-.91,13.23,13.23,0,0,0,1.09-1c0.32-.36.65-0.72,0.94-1.1a21.41,21.41,0,0,0,1.57-2.32c0.47-.79.89-1.6,1.29-2.41a45.36,45.36,0,0,0,2-5c0.29-.84.56-1.69,0.8-2.54q0.18-.64.35-1.29c0.11-.44.22-0.85,0.32-1.34l0-.14v-0.28C173.07,352.34,173.14,344.94,173.06,337.52ZM50,337.32l-0.06-.08-0.05-.08a0.47,0.47,0,1,1,0,.05l0.1,0.14Zm5.82-4.7,0.05,0.07h0A0.66,0.66,0,1,1,55.81,332.61Zm0.37,0.68a0.13,0.13,0,0,1,0,0v0Zm9.08-54.2-0.06.05h0l0.09-.07h0Z" transform="translate(-32.64 -13.18)"/><path d="M148.53,318.51a19.86,19.86,0,0,1,1.56,3.15l0.18,0.44,0.14,0.45c0.09,0.31.2,0.61,0.29,0.93a16.37,16.37,0,0,1,.38,2c0,0.33.11,0.68,0.11,1l0,1.05a18.54,18.54,0,0,1-.09,2.11,17.48,17.48,0,0,1-1,4.19c-0.48,1.37-1.06,2.73-1.45,4.15a14.53,14.53,0,0,0-.54,4.27c0,1.39.13,2.72,0.24,4s0.24,2.45.36,3.54l0.35,3c0.1,0.89.17,1.66,0.21,2.3a9.14,9.14,0,0,1,0,1.46,2.06,2.06,0,0,1-.06.37l0,0.12a0.14,0.14,0,0,0,.26.1h0l0.07-.13a2.15,2.15,0,0,0,.18-0.4l0.1-.3,0.09-.36a8.36,8.36,0,0,0,.17-0.89c0.09-.66.2-1.47,0.24-2.39s0.11-1.94.14-3l0.07-3.54,0-1.89,0-1v-0.51l0-.43a15.32,15.32,0,0,1,.21-1.76,16.25,16.25,0,0,1,.45-1.75c0.38-1.18.93-2.45,1.48-4a18.45,18.45,0,0,0,1-4.85c0-.42.06-0.82,0.05-1.25l0-.64v-0.61l-0.1-1.05,0-.34-0.05-.3-0.11-.59a16.2,16.2,0,0,0-.59-2.23c-0.13-.35-0.27-0.69-0.41-1l-0.21-.5-0.24-.47A18.37,18.37,0,0,0,150,317.6a20.12,20.12,0,0,0-2.21-2.32c-0.35-.32-0.69-0.59-1-0.84s-0.63-.46-0.91-0.65a13.69,13.69,0,0,0-1.33-.81c-0.32-.17-0.49-0.25-0.49-0.25l0,0a0.14,0.14,0,0,0-.14.23,18.11,18.11,0,0,1,1.45,1.38c0.22,0.23.45,0.5,0.71,0.78s0.52,0.6.79,1l0.42,0.54,0.42,0.59C148,317.6,148.24,318,148.53,318.51Z" transform="translate(-32.64 -13.18)"/><path d="M138.89,363.92a5.38,5.38,0,0,0-2-.33,22.49,22.49,0,0,0-3.05.19c-1.16.13-2.46,0.32-3.85,0.57l-2.17.38c-0.75.13-1.51,0.3-2.3,0.44l-4.93.91c-0.85.15-1.71,0.3-2.58,0.42l-2.62.35a32.13,32.13,0,0,1-5.23.28,16.5,16.5,0,0,1-2.47-.21,11.1,11.1,0,0,1-1.14-.25l-0.53-.17-0.47-.18a5.88,5.88,0,0,1-.54-0.26l0,0h0l0,0-0.15-.08-0.29-.16-1.18-.62c-0.78-.43-1.55-0.84-2.3-1.28l-1.12-.64c-0.37-.21-0.73-0.43-1.1-0.63-0.73-.41-1.44-0.82-2.13-1.23s-1.35-.82-2-1.19l-1.89-1.1L91,358l-1.58-.92c-1-.59-1.86-1.08-2.57-1.49s-1.29-.72-1.68-0.95l-0.6-.33-0.15.19s0.72,0.6,2,1.62,3.14,2.47,5.42,4.12c1.14,0.82,2.39,1.71,3.72,2.62s2.75,1.85,4.25,2.79,3,1.9,4.7,2.75a11.53,11.53,0,0,0,2.72.83,18.21,18.21,0,0,0,2.83.29,34.6,34.6,0,0,0,5.62-.38c1.84-.26,3.63-0.62,5.35-1,3.44-.78,6.61-1.67,9.32-2.4a56.17,56.17,0,0,1,6.6-1.53,5.12,5.12,0,0,1,1.84,0,0.88,0.88,0,0,1,.51.29l0.19-.15-0.12-.17A1.4,1.4,0,0,0,138.89,363.92Z" transform="translate(-32.64 -13.18)"/><path d="M142.69,313a12.78,12.78,0,0,0-.2-1.37,25.63,25.63,0,0,0-1.77-5.25c-0.37-.85-0.77-1.7-1.17-2.55l-0.61-1.27-0.16-.32-0.2-.37-0.2-.37-0.23-.36a9.09,9.09,0,0,0-2.46-2.55,10.75,10.75,0,0,0-3.26-1.46,23.67,23.67,0,0,0-6.72-.54c-2.18.06-4.34,0.23-6.41,0.16l-0.75,0-0.36,0-0.42,0-0.84-.09-0.9-.09q-1.78-.13-3.57-0.16c-2.39,0-4.79,0-7.23.16s-4.91.35-7.42,0.63c-1.25.14-2.52,0.3-3.79,0.49s-2.55.39-3.88,0.64c-0.66.12-1.26,0.25-1.9,0.38l-1.07.27c-0.35.09-.7,0.17-1,0.29l-1,.33c-0.34.11-.67,0.26-1,0.39-0.68.25-1.33,0.57-2,.87A34.67,34.67,0,0,0,75,305.54a79.64,79.64,0,0,0-6,5.85l-0.18.19-0.1.11-0.11.13c-0.15.17-.3,0.33-0.44,0.51l-0.42.54-0.39.58a10.43,10.43,0,0,0-1.19,2.63,10.66,10.66,0,0,0-.42,2.85,13,13,0,0,0,.26,2.7,23.93,23.93,0,0,0,1.48,4.57l0.82,1.93c0.13,0.3.24,0.59,0.31,0.8l0.36,1c0.53,1.47,1.12,2.83,1.76,4.19s1.31,2.69,2,4a55.77,55.77,0,0,0,5.05,7.66c0.24,0.31.5,0.61,0.75,0.91s0.5,0.6.8,0.91l0.86,0.92,0.21,0.22,0.2,0.19L81,349.35l0.39,0.38,0.1,0.09L81.65,350l0.26,0.22c0.17,0.15.34,0.3,0.52,0.44L83,351.07a14.28,14.28,0,0,0,2.5,1.44,12.85,12.85,0,0,0,5.79,1,19.73,19.73,0,0,0,5.19-1.06c1.56-.52,3-1.12,4.34-1.68,0.68-.28,1.34-0.55,2-0.8l0.48-.18,0.45-.16,0.52-.18,0.13,0,0.12,0,0.31-.11a24.11,24.11,0,0,0,4.62-2.22,39,39,0,0,0,4-2.82c1.23-1,2.38-2,3.5-2.94l1.65-1.39c0.54-.45,1.09-0.89,1.59-1.26,0.23-.18.56-0.41,0.86-0.63l0.9-.65c0.33-.23.66-0.48,1-0.73s0.65-.51,1-0.78a25.61,25.61,0,0,0,3.59-3.65,31.23,31.23,0,0,0,2.78-4.14c0.81-1.41,1.49-2.82,2.14-4.23s1.25-2.87,1.79-4.2c0.13-.32.3-0.75,0.44-1.14s0.28-.82.42-1.24a14.66,14.66,0,0,0,.58-2.81,10,10,0,0,0,0-1.7,9.09,9.09,0,0,0-.13-1,8.31,8.31,0,0,0-.29-1,6.61,6.61,0,0,0-1.15-2,6.88,6.88,0,0,0-1.67-1.39,9.85,9.85,0,0,0-3.11-1.13c-0.45-.09-0.87-0.16-1.25-0.21l-1-.15-0.31-.06-0.13-.09-0.27-.16L126,305.5l-0.22-.1a10.57,10.57,0,0,0-1.48-.54c-0.44-.13-0.84-0.23-1.24-0.32-1.59-.36-3.05-0.6-4.52-0.83-2.92-.43-5.77-0.79-8.55-1.21l-2.06-.33-1-.18-0.53-.1-0.63-.09c-0.44-.05-0.87-0.14-1.31-0.16l-1.32,0-1.32.07a5.23,5.23,0,0,0-.65.07l-0.64.1a18.84,18.84,0,0,0-4.81,1.53,24.64,24.64,0,0,0-4.09,2.45,40.67,40.67,0,0,0-3.46,2.86c-0.26.25-.47,0.41-0.84,0.8l-0.5.52-0.44.54a11.69,11.69,0,0,0-.77,1.12c-0.23.38-.42,0.76-0.63,1.14a24.6,24.6,0,0,0-2.12,8.92c-0.05.72-.08,1.42-0.11,2.14l0,1.08v1a10,10,0,0,0,1.5,5.2,13.12,13.12,0,0,0,3.35,3.58,19.27,19.27,0,0,0,3.88,2.21,24.69,24.69,0,0,0,4,1.33c0.68,0.16,1.34.29,2.07,0.41l0.47,0.07,0.12,0,0.16,0,0.27,0c0.36,0,.72.07,1.09,0.09a11.56,11.56,0,0,0,4.58-.65l0.55-.21c0.18-.07.35-0.16,0.52-0.24a11,11,0,0,0,1-.53c0.61-.37,1.16-0.76,1.63-1.09s0.91-.63,1.33-0.89l0.31-.17,0.15-.09,0.12-.06,0.24-.12,0.18-.07,0.21-.08,0.21-.07,0.1,0s0.16-.05,0,0l0.58-.22a6.58,6.58,0,0,0,1.09-.53,9.75,9.75,0,0,0,1.79-1.34,16.38,16.38,0,0,0,2.49-3.07c0.68-1,1.24-2.08,1.77-3.09l0.77-1.48,0.36-.69,0.17-.32,0.2-.35,0.1-.18,0.05-.09,0.07-.12a4,4,0,0,0,.31-0.66,4.61,4.61,0,0,0,.28-1.37,6,6,0,0,0-.39-2.33,11.12,11.12,0,0,0-2-3.23,17.22,17.22,0,0,0-2.46-2.38,15.89,15.89,0,0,0-1.39-1c-0.24-.15-0.5-0.3-0.77-0.44l-0.23-.12-0.21-.1-0.17-.07-0.15-.06-0.12,0-0.48-.16L112.1,311a7.64,7.64,0,0,0-.86-0.15c-0.28,0-.55-0.07-0.82-0.09s-0.53,0-.79,0a34.1,34.1,0,0,0-5.85.38c-0.93.14-1.83,0.3-2.73,0.5l-0.7.17-0.63.17a4.22,4.22,0,0,0-1.61.89,9,9,0,0,0-1.82,2.25,18,18,0,0,0-1.12,2.31,21.33,21.33,0,0,0-1.28,4.56,9.84,9.84,0,0,0-.12,2.34c0,0.11,0,.25,0,0.33l0,0.12v0.06s0,0.09,0,.11c0.07,0.21.14,0.43,0.22,0.62l0.3,0.55,0.37,0.48a6.29,6.29,0,0,0,1.73,1.34,7.85,7.85,0,0,0,1.86.66,9,9,0,0,0,3.47.06l0.39-.07,0.38-.1c0.25-.07.49-0.12,0.73-0.21L104,328a6.63,6.63,0,0,0,.61-0.27,13.8,13.8,0,0,0,2.08-1.21,6.28,6.28,0,0,0,1.39-1.36,2.21,2.21,0,0,0,.44-1.42,1.69,1.69,0,0,0-.32-0.87,1.52,1.52,0,0,0-.21-0.24l-0.27.28a1.1,1.1,0,0,1,.15.18,1.29,1.29,0,0,1,.22.66,1.74,1.74,0,0,1-.4,1.11A5.75,5.75,0,0,1,106.4,326a13.2,13.2,0,0,1-2,1.07,10,10,0,0,1-1.24.44c-0.21.07-.45,0.11-0.68,0.16l-0.35.08-0.36,0a8.27,8.27,0,0,1-3.15-.17A6.93,6.93,0,0,1,97,327a5.32,5.32,0,0,1-1.4-1.15,2.84,2.84,0,0,1-.69-1.71,8.66,8.66,0,0,1,.18-2,20.05,20.05,0,0,1,1.34-4.23,16.74,16.74,0,0,1,1.1-2.09A7.76,7.76,0,0,1,99.07,314a2.79,2.79,0,0,1,1-.56l0.63-.15,0.63-.13c0.85-.16,1.73-0.29,2.62-0.4a32.64,32.64,0,0,1,5.54-.21,9.93,9.93,0,0,1,2.79.5,6.28,6.28,0,0,1,1.27.68,13.79,13.79,0,0,1,1.19.89,15.92,15.92,0,0,1,2.13,2.16,9.17,9.17,0,0,1,1.56,2.63,3.89,3.89,0,0,1,.24,1.48,2.41,2.41,0,0,1-.16.71,1.83,1.83,0,0,1-.16.33c-0.06.11-.14,0.23-0.21,0.35-0.57.94-1.08,1.92-1.62,2.89s-1.1,1.94-1.73,2.87a14.17,14.17,0,0,1-2.17,2.58,7.33,7.33,0,0,1-1.36,1,4.22,4.22,0,0,1-.76.35l-0.39.14-0.43.14a7.25,7.25,0,0,0-.85.33c-0.29.11-.54,0.27-0.82,0.41-0.53.3-1,.63-1.53,1a13.3,13.3,0,0,1-3.11,1.71,8.77,8.77,0,0,1-3.53.44c-0.61-.05-1.2-0.11-1.82-0.22s-1.21-.24-1.81-0.39a21.87,21.87,0,0,1-3.54-1.23,16.41,16.41,0,0,1-3.26-1.91,10.18,10.18,0,0,1-2.55-2.78,6.91,6.91,0,0,1-1-3.6c0-1.33.06-2.64,0.18-4a30.14,30.14,0,0,1,.6-3.95A17,17,0,0,1,88,314.27,10.26,10.26,0,0,1,89,312.59l0.31-.39,0.35-.35c0.22-.24.49-0.46,0.75-0.69a37.51,37.51,0,0,1,3.2-2.59,17.91,17.91,0,0,1,7.49-3.31l0.51-.07a3.5,3.5,0,0,1,.51-0.05l1,0,1,0c0.35,0,.69.09,1,0.13s0.69,0.11,1,.18l1.06,0.2,2.12,0.36c2.83,0.46,5.69.85,8.54,1.31,1.42,0.23,2.85.47,4.25,0.8a11.57,11.57,0,0,1,2,.63,2.2,2.2,0,0,1,.41.23l0.24,0.16,0.31,0.15a5.73,5.73,0,0,0,1.13.29c0.74,0.13,1.46.21,2.15,0.36a6.3,6.3,0,0,1,2,.69,3.17,3.17,0,0,1,.76.63,2.88,2.88,0,0,1,.49.84,4.62,4.62,0,0,1,.19,2,15.2,15.2,0,0,1-1.2,4.13c-0.56,1.37-1.13,2.72-1.75,4.05a35.74,35.74,0,0,1-4.45,7.55,21.77,21.77,0,0,1-3.08,3.1c-0.28.23-.56,0.47-0.86,0.68s-0.58.44-.89,0.65l-0.91.64c-0.3.22-.6,0.43-0.9,0.66-2.4,1.82-4.54,3.88-6.84,5.72a25.86,25.86,0,0,1-7.49,4.47l-1,.37-1,.4c-0.69.27-1.38,0.55-2.06,0.84-1.36.57-2.71,1.14-4.09,1.6a16.08,16.08,0,0,1-4.2.89,9.12,9.12,0,0,1-4.13-.72,10.63,10.63,0,0,1-1.83-1.05c-0.29-.21-0.57-0.42-0.83-0.66l-0.2-.17-0.19-.18-0.4-.38a33.43,33.43,0,0,1-2.92-3.16,52.3,52.3,0,0,1-4.79-7.11c-0.71-1.23-1.36-2.5-2-3.77s-1.19-2.57-1.67-3.88l-0.35-1c-0.13-.34-0.26-0.67-0.4-1l-0.84-1.93a20.54,20.54,0,0,1-1.32-3.9,8.27,8.27,0,0,1,.06-4,7.86,7.86,0,0,1,2-3.36c1.87-2,3.72-4,5.72-5.72a31.51,31.51,0,0,1,6.43-4.5c0.59-.27,1.16-0.58,1.76-0.8,0.3-.12.59-0.25,0.89-0.36l0.91-.31c0.3-.11.61-0.19,0.92-0.27l0.92-.25c0.63-.14,1.25-0.29,1.87-0.41a125.94,125.94,0,0,1,14.68-2c2.39-.18,4.74-0.3,7-0.31q1.73,0,3.42.07c1.12,0.07,2.25.21,3.38,0.21,2.25,0,4.42-.21,6.54-0.32A22.2,22.2,0,0,1,132,299a8.75,8.75,0,0,1,2.69,1.11,7.23,7.23,0,0,1,2,2,26.08,26.08,0,0,1,1.35,2.46c0.42,0.83.84,1.65,1.22,2.46a23.93,23.93,0,0,1,1.8,4.86,11.23,11.23,0,0,1,.21,1.21c0.05,0.4,0,.81.07,1.2a8.74,8.74,0,0,1-.36,2.3,11.47,11.47,0,0,1-2.14,3.83c-0.9,1.11-1.69,2.26-2.42,3.33-1.44,2.17-2.63,4.16-3.71,5.86s-2,3.13-2.86,4.23a22.77,22.77,0,0,1-2.05,2.38L127,337l0.25,0.29,0.85-.71a23.31,23.31,0,0,0,2.2-2.35c0.9-1.08,1.92-2.48,3.07-4.15s2.42-3.61,3.91-5.7c0.38-.51.77-1.05,1.18-1.57l0.62-.79,0.68-.82,0.16-.2,0.18-.23,0.36-.46a8.74,8.74,0,0,0,.69-1c0.11-.18.23-0.34,0.33-0.53l0.28-.57c0.09-.19.2-0.38,0.27-0.59l0.22-.62a8.62,8.62,0,0,0,.34-1.3,4.44,4.44,0,0,0,.1-0.68l0.06-.69c0-.23,0-0.46,0-0.69A5.94,5.94,0,0,0,142.69,313Zm-15.91-7,0,0,0.17,0.12-0.11-.08,0.08,0.06-0.07-.05Z" transform="translate(-32.64 -13.18)"/></svg>
